# xmcd CD database file generated by Grip 3.2.0
# 
# Track frame offsets:
#       183
#       28963
#       43783
#       56828
#       78583
#       104988
#       119535
#       135080
#       158463
#       169993
#       190933
#       215018
#       233338
#       248978
#       269470
#       289233
#       308275
#       319063
#       338345
# 
# Disc length: 4626 seconds
# 
# Revision: 4
# Processed by: cddbd v1.5.2PL0 Copyright (c) Steve Scherf et al.
# Submitted via: Grip 3.2.0
# 
DISCID=10121013
DTITLE=Various Artist - Blues Legends [CD4]
DYEAR=1993
DGENRE=Blues
TTITLE0=Buddy Guy - First Time I Met The Blues
TTITLE1=Billy Boy Arnold and Tony McPhee - Don't Stay Out All Night
TTITLE2=Muddy Waters - Hoochie Coochie Man
TTITLE3=Buster Benton and Carey Bell - Born With The Blues
TTITLE4=Buddy Guy and Junior Wells - Country Girl
TTITLE5=Billy Boy Arnold and Tony McPhee - I Wish You Would
TTITLE6=Bo Didley - Road Runner
TTITLE7=Magic Slim - Born In Missouri (Cummins Prison Farm)
TTITLE8=Earl Hooker - The Leading Brand
TTITLE9=Mighty Joe Young - Why Do You Want To Hurt Me
TTITLE10=Jimmy Johnson - When My First Wife Quit Me
TTITLE11=Koko Taylor - Wang Dang Doodle
TTITLE12=Sunnyland Slim - I Had It So Hard
TTITLE13=Muddy Waters - She's 19 Years Old
TTITLE14=Fenton Robinson - You Don't Know What Love Is
TTITLE15=Willie Williams with Carey Bell - You Went Away Baby
TTITLE16=Jody Williams - Moaning For Molasses
TTITLE17=Byther Smith - I Don't Like To Travel
TTITLE18=Earl Hooker - The Foxtrot
EXTD=
EXTT0=
EXTT1=
EXTT2=
EXTT3=
EXTT4=
EXTT5=
EXTT6=
EXTT7=
EXTT8=
EXTT9=
EXTT10=
EXTT11=
EXTT12=
EXTT13=
EXTT14=
EXTT15=
EXTT16=
EXTT17=
EXTT18=
PLAYORDER=
